<svg width="800" height="268" viewBox="0 0 800 268" fill="none" xmlns="http://www.w3.org/2000/svg">
<path d="M104.24 241.51C88.64 251.3 70.2 256.96 50.43 256.96C32.07 256.96 14.86 252.07 0 243.54V267.86H119.88V229.42C115.28 233.75 110.28 237.65 104.93 241.07C104.7 241.22 104.47 241.37 104.24 241.51Z" fill="white"/>
<path d="M0 0V225.59H22.56H28.04H72.82H78.3H119.88V0H0ZM83.02 200.1C70.32 211.67 54.52 219.89 37.03 223.42C31.11 224.61 25 225.27 18.74 225.33L18.77 225.26C24.69 225.03 30.46 224.17 36 222.76C50.14 219.16 62.83 211.92 73.01 202.08C73.47 201.37 73.94 200.65 74.37 199.92C81.08 188.63 84.32 175.86 84.11 163.14C83.81 145.68 77.01 128.32 63.69 115C51.9 103.21 36.94 96.52 21.55 94.94L13.26 72.95C32.13 74.34 50.61 82.25 65.04 96.68C81.99 113.63 89.94 136.17 88.9 158.36C88.22 172.82 83.72 187.14 75.4 199.67C89.55 184.83 98.24 164.75 98.24 142.63C98.24 122.86 91.3 104.72 79.73 90.49L91.21 65.11C105.86 82.09 114.72 104.21 114.72 128.4C114.72 156.81 102.5 182.37 83.02 200.1Z" fill="white"/>
<path d="M133.6 0V225.59H175.19H180.67H225.45H230.93H253.49V0H133.6ZM179.11 199.92C179.68 200.88 180.28 201.82 180.89 202.75C190.94 212.24 203.36 219.24 217.18 222.75C222.72 224.16 228.48 225.02 234.41 225.25L234.44 225.32C228.18 225.26 222.07 224.6 216.15 223.41C198.65 219.89 182.86 211.66 170.16 200.09C150.68 182.36 138.45 156.8 138.45 128.39C138.45 104.2 147.31 82.09 161.97 65.1L173.45 90.48C161.88 104.71 154.94 122.85 154.94 142.61C154.94 164.94 163.79 185.2 178.18 200.08C178.4 200.3 178.62 200.52 178.84 200.74C178.6 200.39 178.34 200.04 178.11 199.69C169.77 187.15 165.26 172.82 164.58 158.34C163.54 136.15 171.49 113.61 188.44 96.66C202.87 82.23 221.35 74.32 240.22 72.93L231.93 94.92C216.54 96.5 201.58 103.19 189.79 114.98C176.47 128.3 169.67 145.67 169.37 163.12C169.15 175.87 172.41 188.64 179.11 199.92Z" fill="white"/>
<path d="M149.25 241.51C149.01 241.36 148.78 241.21 148.55 241.06C143.2 237.64 138.2 233.74 133.6 229.41V267.85H253.48V243.53C238.63 252.07 221.41 256.95 203.05 256.95C183.29 256.96 164.84 251.3 149.25 241.51Z" fill="white"/>
<path d="M286.07 216.42H296.1C308.31 216.48 315.25 221.41 315.25 235.02C315.25 248.63 306.85 253.56 296.1 253.56H286.07V216.42ZM296.1 249.86C306.01 249.86 310.94 245.71 310.94 235.13C310.94 224.66 306.63 220.12 296.1 220.12H290.33V249.86H296.1Z" fill="white"/>
<path d="M320.74 235.02C320.74 221.92 329.25 215.59 337.93 215.59C348.18 215.59 355.13 221.92 355.13 235.02C355.13 248.13 346.67 254.45 337.93 254.45C327.63 254.45 320.74 248.35 320.74 235.02ZM350.81 235.13C350.81 224.43 345.77 219.23 337.93 219.23C330.76 219.23 325.11 224.44 325.11 234.8C325.11 245.78 330.04 250.76 337.93 250.76C345.1 250.76 350.81 245.6 350.81 235.13Z" fill="white"/>
<path d="M375.96 216.42H399.09V220.12H380.21V232.73H392.53V236.14H380.21V249.86H399.09V253.56H375.96V216.42Z" fill="white"/>
<path d="M403.73 251.15V246.33C405.24 248.63 408.54 250.76 413.64 250.76C419.18 250.76 422.49 248.01 422.49 243.42C422.49 239.22 419.63 237.82 415.6 236.87L412.58 236.08C407.71 234.9 404.07 232.16 404.07 226.05C404.07 219.44 409.11 215.58 416.56 215.58C422.1 215.58 425.13 217.37 426.25 218.82V223.64C424.96 221.4 421.49 219.27 416.39 219.27C411.52 219.27 408.21 221.4 408.21 225.54C408.21 229.74 410.51 231.31 414.48 232.26L417.51 232.99C422.77 234.33 426.58 236.69 426.58 242.96C426.58 249.9 421.88 254.44 413.53 254.44C407.93 254.45 404.96 252.55 403.73 251.15Z" fill="white"/>
<path d="M442.88 220.12H430.78V216.42H459.17V220.12H447.14V253.56H442.88V220.12Z" fill="white"/>
<path d="M470.54 219.84L469.25 216.43H473.67L488.68 253.56H484.25L480.61 244.49H464.26L460.62 253.56H456.53L470.54 219.84ZM465.56 241.3H479.34L473.35 226.23L472.57 223.93L471.73 226.23L465.56 241.3Z" fill="white"/>
<path d="M494.06 216.42H504.08C516.29 216.48 523.23 221.41 523.23 235.02C523.23 248.63 514.83 253.56 504.08 253.56H494.06V216.42ZM504.09 249.86C514 249.86 518.93 245.71 518.93 235.13C518.93 224.66 514.62 220.12 504.09 220.12H498.32V249.86H504.09Z" fill="white"/>
<path d="M528.73 235.02C528.73 221.92 537.24 215.59 545.92 215.59C556.17 215.59 563.11 221.92 563.11 235.02C563.11 248.13 554.65 254.45 545.92 254.45C535.62 254.45 528.73 248.35 528.73 235.02ZM558.8 235.13C558.8 224.43 553.76 219.23 545.92 219.23C538.75 219.23 533.09 224.44 533.09 234.8C533.09 245.78 538.02 250.76 545.92 250.76C553.09 250.76 558.8 245.6 558.8 235.13Z" fill="white"/>
<path d="M583.94 216.42H593.97C606.18 216.48 613.12 221.41 613.12 235.02C613.12 248.63 604.72 253.56 593.97 253.56H583.94V216.42ZM593.97 249.86C603.88 249.86 608.81 245.71 608.81 235.13C608.81 224.66 604.49 220.12 593.97 220.12H588.2V249.86H593.97Z" fill="white"/>
<path d="M618.61 235.02C618.61 221.92 627.12 215.59 635.8 215.59C646.05 215.59 652.99 221.92 652.99 235.02C652.99 248.13 644.53 254.45 635.8 254.45C625.5 254.45 618.61 248.35 618.61 235.02ZM648.69 235.13C648.69 224.43 643.65 219.23 635.81 219.23C628.64 219.23 622.99 224.44 622.99 234.8C622.99 245.78 627.92 250.76 635.81 250.76C642.97 250.76 648.69 245.6 648.69 235.13Z" fill="white"/>
<path d="M683.68 219.84L682.39 216.43H686.81L701.82 253.56H697.4L693.76 244.49H677.41L673.77 253.56H669.69L683.68 219.84ZM678.7 241.3H692.48L686.49 226.23L685.71 223.93L684.87 226.23L678.7 241.3Z" fill="white"/>
<path d="M704.68 235.02C704.68 221.92 712.13 215.59 721.2 215.59C726.63 215.59 729.71 216.99 731.67 218.84V223.71C729.54 220.69 726.24 219.29 721.81 219.29C714.25 219.29 708.99 224.27 708.99 234.8C708.99 245.61 713.86 250.76 721.81 250.76C726.01 250.76 729.48 249.42 731.67 246.45V250.76C729.43 253.17 725.74 254.46 721.36 254.46C711.35 254.45 704.68 248.46 704.68 235.02Z" fill="white"/>
<path d="M745.4 238.55H743.33V253.56H739.07V216.43H748.82C757.72 216.43 762.49 219.62 762.49 226.91C762.49 233.57 758.23 238.06 750.22 238.56L764.89 253.57H759.68L745.4 238.55ZM748.81 235.47C755.31 235.47 758.16 232.28 758.16 227.29C758.16 222.25 755.3 219.84 748.75 219.84H743.32V235.47H748.81Z" fill="white"/>
<path d="M770.37 216.42H793.5V220.12H774.63V232.73H786.95V236.14H774.63V249.86H793.5V253.56H770.37V216.42Z" fill="white"/>
<path d="M286.07 46.12H308.03C327.51 46.12 335.72 54.14 335.72 68.08C335.72 82.21 327.51 92.53 308.03 92.53H304.78V80.78H307.55C315.48 80.78 319.3 76.58 319.3 69.42C319.3 62.06 315.48 58.34 307.46 58.34H302.02V111.53H286.08V46.12H286.07Z" fill="white"/>
<path d="M340.6 78.78C340.6 56.15 356.55 44.6 374.12 44.6C393.69 44.6 407.25 56.15 407.25 78.78C407.25 101.41 391.3 113.06 373.73 113.06C354.16 113.06 340.6 101.41 340.6 78.78ZM390.92 79.16C390.92 65.7 384.52 58.15 373.92 58.15C363.42 58.15 356.92 65.6 356.92 78.39C356.92 91.76 363.32 99.49 373.92 99.49C384.43 99.5 390.92 91.86 390.92 79.16Z" fill="white"/>
<path d="M416.7 46.12H437.8C460.05 46.12 473.04 54.52 473.04 78.68C473.04 102.84 457.38 111.53 437.8 111.53H416.7V46.12ZM437.81 98.26C452.13 98.26 456.72 92.63 456.72 79.07C456.72 65.51 452.14 59.4 437.81 59.4H432.75V98.26H437.81Z" fill="white"/>
<path d="M482.78 46.12H527.18V59.3H498.82V71.71H517.35V84.22H498.82V98.35H527.18V111.53H482.78V46.12Z" fill="white"/>
<path d="M554.11 88.33H553.25V111.53H537.21V46.12H559.84C575.21 46.12 585.81 51.66 585.81 66.46C585.81 77.25 579.79 84.22 570.24 86.99L590.2 111.53H571.67L554.11 88.33ZM558.6 77.54C565.57 77.54 569.39 74.2 569.39 67.61C569.39 61.12 565.57 58.35 558.5 58.35H553.25V77.54H558.6Z" fill="white"/>
<path d="M286.07 190.67V175.2C288.36 178.25 291.99 180.93 296.67 180.93C303.26 180.93 305.83 177.69 305.83 169.47V127.55H321.87V170.71C321.87 188.09 311.18 194.48 298.57 194.48C292.09 194.49 287.98 192.58 286.07 190.67Z" fill="white"/>
<path d="M333.44 164.22V127.55H349.48V164.31C349.48 175.58 353.4 180.83 362.47 180.83C371.35 180.83 375.36 175.58 375.36 164.31V127.55H391.21V164.22C391.21 185.51 378.7 194.49 361.7 194.49C344.13 194.49 333.44 186.18 333.44 164.22Z" fill="white"/>
<path d="M403.14 127.55H424.24C446.49 127.55 459.47 135.96 459.47 160.11C459.47 184.27 443.81 192.96 424.24 192.96H403.14V127.55ZM424.25 179.69C438.57 179.69 443.16 174.06 443.16 160.5C443.16 146.94 438.58 140.83 424.25 140.83H419.19V179.69H424.25Z" fill="white"/>
<path d="M485.26 127.55H469.22V192.96H485.26V127.55Z" fill="white"/>
<path d="M494.72 160.21C494.72 137.58 508.95 126.02 526.23 126.02C537.02 126.02 542.37 128.98 545.23 131.37V147.6C541.7 142.44 536.25 139.67 528.42 139.67C517.25 139.67 511.04 146.73 511.04 159.82C511.04 172.81 517.05 180.73 528.42 180.73C535.96 180.73 541.69 178.15 545.23 173.47V188.27C541.7 191.9 534.92 194.48 526.61 194.48C506.94 194.49 494.72 183.13 494.72 160.21Z" fill="white"/>
<path d="M571.4 127.55H555.36V192.96H571.4V127.55Z" fill="white"/>
<path d="M601.67 134.24L599.19 127.56H615.71C618 133.19 639.49 187.34 641.87 192.97H625.26L620.77 181.13H597.57L593.18 192.97H577.8L601.67 134.24ZM612.04 114.04H623.03L611.89 124.97H602.62L612.04 114.04ZM601.76 169.85H616.56L610.93 154.95L609.12 149.41L607.31 154.95L601.76 169.85Z" fill="white"/>
<path d="M665.36 169.76H664.5V192.96H648.46V127.55H671.09C686.46 127.55 697.06 133.09 697.06 147.89C697.06 158.68 691.04 165.65 681.49 168.42L701.45 192.96H682.93L665.36 169.76ZM669.85 158.97C676.82 158.97 680.64 155.63 680.64 149.04C680.64 142.54 676.82 139.78 669.75 139.78H664.5V158.97H669.85Z" fill="white"/>
<path d="M723.99 127.55H707.95V192.96H723.99V127.55Z" fill="white"/>
<path d="M733.35 160.21C733.35 137.58 749.3 126.03 766.87 126.03C786.45 126.03 800.01 137.58 800.01 160.21C800.01 182.84 784.06 194.49 766.49 194.49C746.91 194.49 733.35 182.84 733.35 160.21ZM783.67 160.59C783.67 147.13 777.27 139.59 766.67 139.59C756.17 139.59 749.67 147.03 749.67 159.83C749.67 173.2 756.07 180.93 766.67 180.93C777.18 180.93 783.67 173.29 783.67 160.59Z" fill="white"/>
</svg>
